<svg width="100" height="36" viewBox="0 0 100 36" fill="none" xmlns="http://www.w3.org/2000/svg">
<mask id="path-1-inside-1_39_434" fill="white">
<path d="M0 0H100V36H0V0Z"/>
</mask>
<path d="M100 35H0V37H100V35Z" fill="#1D91CC" mask="url(#path-1-inside-1_39_434)"/>
<path d="M7.85844 28.7C6.61844 28.7 5.51844 28.4533 4.55844 27.96C3.61177 27.48 2.8851 26.7733 2.37844 25.84C1.87177 24.9067 1.65844 23.7933 1.73844 22.5C1.77844 21.7533 1.9251 20.9667 2.17844 20.14C2.4451 19.3133 2.7451 18.5467 3.07844 17.84L4.81844 18.66C4.47177 19.4333 4.2051 20.14 4.01844 20.78C3.83177 21.42 3.73844 22.0533 3.73844 22.68C3.73844 23.8267 4.09177 24.6867 4.79844 25.26C5.5051 25.8333 6.5251 26.12 7.85844 26.12C8.6051 26.12 9.31177 26.0333 9.97844 25.86C10.6584 25.6867 11.2318 25.4667 11.6984 25.2C12.1651 24.9333 12.4718 24.68 12.6184 24.44C12.4184 24.2 11.9251 23.8467 11.1384 23.38C10.3518 22.9267 9.5251 22.5333 8.65844 22.2L9.21844 19.76C10.3118 19.9733 11.2784 20.1333 12.1184 20.24C12.9718 20.3467 13.8051 20.4067 14.6184 20.42H14.9784L15.1184 21.7L14.9784 23H14.6184C14.3918 23 14.0384 22.9867 13.5584 22.96C14.1984 23.5333 14.5184 24.0667 14.5184 24.56C14.5051 25.2 14.1984 25.84 13.5984 26.48C12.9984 27.1333 12.1918 27.6667 11.1784 28.08C10.1651 28.4933 9.05844 28.7 7.85844 28.7ZM20.6847 23C20.178 23 19.6914 22.8733 19.2247 22.62C18.7714 22.3533 18.378 21.9867 18.0447 21.52C17.738 21.9867 17.3447 22.3533 16.8647 22.62C16.3847 22.8733 15.8314 23 15.2047 23H14.7047V20.42H15.1847C15.8647 20.42 16.358 20.2867 16.6647 20.02C16.9847 19.74 17.1447 19.2933 17.1447 18.68V18.58C17.158 18.2467 17.098 16.7933 16.9647 14.22C16.8447 11.6333 16.738 9.88667 16.6447 8.98L18.8447 8.5C18.938 9.42 19.0514 12.0533 19.1847 16.4L19.2647 18.6C19.3447 19.8133 19.818 20.42 20.6847 20.42H20.9047L21.0447 21.7L20.9047 23H20.6847ZM20.6808 20.42H20.9808C21.6208 20.42 22.1341 20.28 22.5208 20C22.9208 19.72 23.2408 19.28 23.4808 18.68C23.7208 18.08 23.9141 17.2733 24.0608 16.26L25.9208 16.64C25.8408 17.16 25.8008 17.62 25.8008 18.02C25.8008 18.9267 26.0141 19.6 26.4408 20.04C27.4541 18.24 28.5808 16.84 29.8208 15.84C31.0741 14.84 32.3141 14.34 33.5408 14.34C34.3274 14.34 35.0274 14.52 35.6408 14.88C36.2674 15.2267 36.7408 15.7133 37.0608 16.34C37.3808 16.9533 37.5074 17.6467 37.4408 18.42C37.3474 19.4333 36.9541 20.32 36.2608 21.08C35.5808 21.8267 34.6608 22.4067 33.5008 22.82C32.3541 23.22 31.0541 23.42 29.6008 23.42C26.9741 23.42 25.3208 22.6067 24.6408 20.98C24.2541 21.6333 23.7674 22.1333 23.1808 22.48C22.6074 22.8267 21.8674 23 20.9608 23H20.6808V20.42ZM28.1808 20.8C28.5008 20.8533 28.9208 20.88 29.4408 20.88C30.6274 20.88 31.6874 20.7467 32.6208 20.48C33.5541 20.2 34.2741 19.8467 34.7808 19.42C35.3008 18.98 35.5608 18.54 35.5608 18.1C35.5608 17.7267 35.4008 17.42 35.0808 17.18C34.7608 16.9267 34.3208 16.8 33.7608 16.8C32.8274 16.8 31.8741 17.1467 30.9008 17.84C29.9274 18.5333 29.0208 19.52 28.1808 20.8ZM39.6422 22.88C39.7489 22.08 39.8022 20.7267 39.8022 18.82C39.8022 16.9933 39.7489 15.08 39.6422 13.08C39.5489 11.08 39.4422 9.71333 39.3222 8.98L41.5222 8.48C41.6289 9.2 41.7289 10.5333 41.8222 12.48C41.9155 14.4133 41.9622 16.3067 41.9622 18.16C41.9622 20.36 41.8889 22.0133 41.7422 23.12L39.6422 22.88ZM57.7716 23C57.1182 23 56.5582 22.8933 56.0916 22.68C55.6382 22.4667 55.2516 22.1267 54.9316 21.66C54.1316 21.9 53.3649 22.02 52.6316 22.02C51.4849 22.02 50.5382 21.7467 49.7916 21.2C49.0449 20.64 48.6716 19.8867 48.6716 18.94C48.6716 17.8333 49.0982 16.8933 49.9516 16.12C50.8182 15.3333 51.9716 14.6667 53.4116 14.12L53.2516 12.92L55.3516 12.5C55.3916 12.7933 55.4182 13.0733 55.4316 13.34C55.4582 13.6067 55.4849 13.86 55.5116 14.1L55.9516 18.04C56.0316 18.72 56.1316 19.2267 56.2516 19.56C56.3716 19.88 56.5449 20.1067 56.7716 20.24C56.9982 20.36 57.3316 20.42 57.7716 20.42H58.1116L58.2516 21.7L58.1116 23H57.7716ZM50.6516 18.46C50.6116 18.78 50.7649 19.0467 51.1116 19.26C51.4716 19.4733 51.9449 19.58 52.5316 19.58C52.9982 19.58 53.5116 19.5 54.0716 19.34C54.0316 19.1267 53.9849 18.8067 53.9316 18.38L53.6916 16.42C52.8649 16.6867 52.1582 17.0067 51.5716 17.38C50.9849 17.7533 50.6782 18.1133 50.6516 18.46ZM73.0083 23C70.5816 22.9867 68.9616 22.1667 68.1483 20.54C66.4816 21.4067 64.9749 22.0333 63.6283 22.42C62.2949 22.8067 60.7749 23 59.0683 23H57.8683V20.42H59.4683C61.0683 20.42 62.5616 20.24 63.9483 19.88C65.3483 19.5067 66.8083 18.9267 68.3283 18.14C67.8883 17.98 67.2949 17.72 66.5483 17.36C65.3349 16.7333 64.2883 16.42 63.4083 16.42C62.8883 16.42 62.4216 16.5667 62.0083 16.86C61.5949 17.1533 61.2816 17.4933 61.0683 17.88L59.6083 16.82C60.0749 15.8733 60.6349 15.16 61.2883 14.68C61.9416 14.1867 62.6749 13.94 63.4883 13.94C64.0616 13.94 64.6083 14.04 65.1283 14.24C65.6616 14.4267 66.4016 14.7667 67.3483 15.26C68.1749 15.6733 68.8549 15.9867 69.3883 16.2C69.9216 16.4133 70.5083 16.5867 71.1483 16.72L71.2283 19.02C70.8949 19.1133 70.4616 19.3067 69.9283 19.6C70.5949 20.1333 71.4483 20.4067 72.4883 20.42H73.2083L73.3483 21.7L73.2083 23H73.0083ZM72.985 20.42H73.465C73.8783 20.42 74.405 20.4067 75.045 20.38C74.5783 19.7533 74.345 19.0733 74.345 18.34C74.345 18.2467 74.3583 18.08 74.385 17.84C74.505 17.08 74.745 16.3933 75.105 15.78C75.4783 15.1533 75.925 14.66 76.445 14.3C76.9783 13.94 77.5383 13.76 78.125 13.76C78.7783 13.76 79.3583 13.9667 79.865 14.38C80.3717 14.78 80.765 15.3067 81.045 15.96C81.325 16.6 81.465 17.26 81.465 17.94C81.465 18.0733 81.4517 18.2733 81.425 18.54C81.3317 19.2467 81.1117 19.8733 80.765 20.42H82.705L82.845 21.7L82.705 23H81.505C80.2383 23 79.0583 22.8067 77.965 22.42C76.805 22.8067 75.305 23 73.465 23H72.985V20.42ZM76.265 18.04C76.2783 18.3867 76.4183 18.7267 76.685 19.06C76.965 19.3933 77.3517 19.6733 77.845 19.9C78.2983 19.7267 78.6583 19.5133 78.925 19.26C79.1917 18.9933 79.3983 18.6733 79.545 18.3C79.585 17.9933 79.545 17.68 79.425 17.36C79.305 17.0267 79.1183 16.7533 78.865 16.54C78.625 16.3267 78.325 16.22 77.965 16.22C77.5383 16.22 77.165 16.4067 76.845 16.78C76.525 17.14 76.3317 17.56 76.265 18.04ZM77.005 10.32C77.005 10.32 77.3783 9.94667 78.125 9.2C78.6983 9.76 79.265 10.3267 79.825 10.9C79.0783 11.6467 78.705 12.02 78.705 12.02L78.125 12.6L76.425 10.9L77.005 10.32ZM82.4386 20.42H82.7386C83.3786 20.42 83.8919 20.28 84.2786 20C84.6786 19.72 84.9986 19.28 85.2386 18.68C85.4786 18.08 85.6719 17.2733 85.8186 16.26L87.6786 16.64C87.5986 17.16 87.5586 17.62 87.5586 18.02C87.5586 18.9267 87.7719 19.6 88.1986 20.04C89.2119 18.24 90.3386 16.84 91.5786 15.84C92.8319 14.84 94.0719 14.34 95.2986 14.34C96.0853 14.34 96.7853 14.52 97.3986 14.88C98.0253 15.2267 98.4986 15.7133 98.8186 16.34C99.1386 16.9533 99.2653 17.6467 99.1986 18.42C99.1053 19.4333 98.7119 20.32 98.0186 21.08C97.3386 21.8267 96.4186 22.4067 95.2586 22.82C94.1119 23.22 92.8119 23.42 91.3586 23.42C88.7319 23.42 87.0786 22.6067 86.3986 20.98C86.0119 21.6333 85.5253 22.1333 84.9386 22.48C84.3653 22.8267 83.6253 23 82.7186 23H82.4386V20.42ZM89.9386 20.8C90.2586 20.8533 90.6786 20.88 91.1986 20.88C92.3853 20.88 93.4453 20.7467 94.3786 20.48C95.3119 20.2 96.0319 19.8467 96.5386 19.42C97.0586 18.98 97.3186 18.54 97.3186 18.1C97.3186 17.7267 97.1586 17.42 96.8386 17.18C96.5186 16.9267 96.0786 16.8 95.5186 16.8C94.5853 16.8 93.6319 17.1467 92.6586 17.84C91.6853 18.5333 90.7786 19.52 89.9386 20.8Z" fill="#1D91CC"/>
</svg>
