<svg width="16" height="16" viewBox="0 0 16 16" fill="none" xmlns="http://www.w3.org/2000/svg">
<path d="M8 8.50004C5.88667 8.50004 4.16667 6.78004 4.16667 4.66671C4.16667 2.55337 5.88667 0.833374 8 0.833374C10.1133 0.833374 11.8333 2.55337 11.8333 4.66671C11.8333 6.78004 10.1133 8.50004 8 8.50004ZM8 1.83337C6.44001 1.83337 5.16667 3.10671 5.16667 4.66671C5.16667 6.22671 6.44001 7.50004 8 7.50004C9.56 7.50004 10.8333 6.22671 10.8333 4.66671C10.8333 3.10671 9.56 1.83337 8 1.83337Z" fill="#353535"/>
<path d="M13.7268 15.1667C13.4534 15.1667 13.2268 14.94 13.2268 14.6667C13.2268 12.3667 10.8801 10.5 8.0001 10.5C5.1201 10.5 2.77344 12.3667 2.77344 14.6667C2.77344 14.94 2.54677 15.1667 2.27344 15.1667C2.0001 15.1667 1.77344 14.94 1.77344 14.6667C1.77344 11.82 4.56677 9.5 8.0001 9.5C11.4334 9.5 14.2268 11.82 14.2268 14.6667C14.2268 14.94 14.0001 15.1667 13.7268 15.1667Z" fill="#353535"/>
</svg>
